# xmcd
#
# Track frame offsets:
#	150
#	19008
#	39046
#	53896
#	66378
#	80333
#	92145
#	110309
#	124177
#	141871
#	156619
#	173942
#
# Disc length: 2512 seconds
#
# Revision: 1
# Processed by: cddbd v1.5.2PL0 Copyright (c) Steve Scherf et al.
# Submitted via: audiograbber 1.83.01
#
DISCID=9f09ce0c
DTITLE=Orley Allen - Orley Allen
DYEAR=1900
DGENRE=Country
TTITLE0=Travelling Riverside Blues
TTITLE1=You´ve Got To Move
TTITLE2=I´m So Glad
TTITLE3=Crossroads
TTITLE4=Keep Your Lamp Trimmed And Burning
TTITLE5=Nobodys Fault But Mine
TTITLE6=Poor Boy
TTITLE7=Jesus Is Just All Right
TTITLE8=Panama Limited
TTITLE9=I Asked For Water She Gave Me Gasoline
TTITLE10=Dark Was The Night Cold Was The Ground
TTITLE11=Aint It So
EXTD=
EXTT0=
EXTT1=
EXTT2=
EXTT3=
EXTT4=
EXTT5=
EXTT6=
EXTT7=
EXTT8=
EXTT9=
EXTT10=
EXTT11=
PLAYORDER=
